<svg width="400" height="400" xmlns="http://www.w3.org/2000/svg">
 <!-- Created with Method Draw - http://github.com/duopixel/Method-Draw/ -->

 <g>
  <title>background</title>
  <rect fill="none" id="canvas_background" height="402" width="402" y="-1" x="-1"/>
  <g display="none" overflow="visible" y="0" x="0" height="100%" width="100%" id="canvasGrid">
   <rect fill="url(#gridpattern)" stroke-width="0" y="0" x="0" height="100%" width="100%"/>
  </g>
 </g>
 <g>
  <title>Layer 1</title>
  <defs>
   <style>.cls-1{fill:#c2bfbf;}.cls-2{fill:#599636;}.cls-3{fill:#69b240;}</style>
  </defs>
  <g stroke="null" id="svg_8">
   <path stroke="null" id="svg_5" d="m230.124657,433.120493c-3.003119,38.206186 -7.317377,66.091876 -11.558956,75.819308c0,0 -0.598879,-0.409913 -1.677444,-1.197759c10.654822,24.812799 9.593701,67.269285 9.593701,67.269285l15.576681,5.163155s-3.163014,-41.191862 1.247181,-61.108966c1.334397,-6.023681 4.407288,-11.294402 8.035451,-15.72204c-0.581436,0.404098 -0.889598,0.607601 -0.889598,0.607601c-15.233634,-7.017937 -19.655458,-40.037711 -20.327017,-70.830583z" class="cls-1"/>
   <path stroke="null" id="svg_6" d="m354.101435,229.332846c-30.525411,-134.672301 -102.623526,-178.939962 -110.379888,-195.845225c-8.529672,-11.960147 -17.117488,-33.150597 -17.117488,-33.150597l0,0.290718c7.224347,27.908948 6.000424,253.102175 6.80862,280.07501c1.700701,56.399332 0,110.595019 -3.296744,152.41774c0.665745,30.792872 5.090476,63.812646 20.350274,70.83349c0,0 0.308161,-0.203503 0.889598,-0.607601c2.401332,-1.674537 9.5123,-6.843507 18.998435,-15.535981l0.671559,-0.613415c36.549093,-33.732033 106.873826,-118.720593 83.075634,-257.86414z" class="cls-2"/>
   <path stroke="null" id="svg_7" d="m230.124657,433.120493c3.288023,-41.822721 4.997446,-96.012594 3.288023,-152.41774c-0.808197,-26.972835 0.415727,-252.166063 -6.805713,-280.07501a11.776994,11.776994 0 0 0 -0.622137,-1.889668c-0.872155,11.887467 -1.340211,16.533144 -12.631706,28.583414c-17.463443,13.663756 -107.135472,88.878369 -114.441221,241.877546c-6.811528,142.675773 103.082861,227.684683 117.976354,238.543008c1.081472,0.787846 1.677444,1.197759 1.677444,1.197759c4.241579,-9.730338 8.558744,-37.613121 11.558956,-75.819308z" class="cls-3"/>
  </g>
  <ellipse stroke="#000" ry="43.200001" rx="42.000004" id="svg_9" cy="247.200001" cx="140.500004" stroke-width="1.5" fill="#fff"/>
  <ellipse stroke="#000" ry="43.200001" rx="42.000004" id="svg_11" cy="248.200001" cx="269.500004" stroke-width="1.5" fill="#fff"/>
  <ellipse stroke="#000" ry="12" rx="12" id="svg_12" cy="249" cx="130.5" stroke-opacity="null" stroke-width="1.5" fill="#333333"/>
  <ellipse stroke="#000" ry="12" rx="12" id="svg_14" cy="249" cx="266.5" stroke-opacity="null" stroke-width="1.5" fill="#333333"/>
 </g>
</svg>